<svg width="36" height="39" viewBox="0 0 36 39" fill="none" xmlns="http://www.w3.org/2000/svg">
<path d="M4.74732 25.0368C4.74169 24.9523 4.73774 24.8672 4.73774 24.7813C4.73774 23.2734 5.62526 21.9692 6.90501 21.3621C6.65254 21.1362 6.41167 20.9023 6.18651 20.6588C6.03523 20.4949 5.82511 20.398 5.60239 20.3894C5.37942 20.3801 5.16259 20.4607 4.99887 20.6119L3.14727 22.3232C2.80638 22.6382 2.78545 23.1699 3.10054 23.5108C3.6017 24.0534 4.15329 24.5623 4.74732 25.0368Z" fill="#319F1C"/>
<path d="M35.9667 37.1561L34.3137 33.2532L34.4666 33.1594C34.8623 32.9165 34.9863 32.3991 34.7434 32.0035L30.7196 25.446C31.5198 24.8589 32.2515 24.2127 32.8997 23.5112C33.2148 23.1703 33.1938 22.6386 32.8529 22.3236L31.0014 20.6123C30.8376 20.461 30.6197 20.3808 30.3977 20.3897C30.1751 20.3984 29.965 20.4954 29.8136 20.6591C29.4216 21.0834 28.9862 21.4813 28.5139 21.8515L23.5367 13.7403C24.1808 12.7258 24.5555 11.5245 24.5555 10.2367C24.5555 7.7467 23.1599 5.57682 21.11 4.46734C21.6013 3.9945 21.908 3.33105 21.908 2.597C21.908 1.16503 20.7431 0 19.3111 0H16.6889C15.2569 0 14.092 1.16503 14.092 2.597C14.092 3.33105 14.3986 3.9945 14.89 4.46734C12.84 5.57682 11.4445 7.7467 11.4445 10.2367C11.4445 11.5245 11.8192 12.7259 12.4633 13.7401L7.98541 21.0379C8.16006 21.0131 8.33832 20.9994 8.51969 20.9994C10.2798 20.9994 11.763 22.2082 12.1828 23.8392L16.6001 16.6404C17.0515 16.7389 17.5195 16.7924 18 16.7924C18.4805 16.7924 18.9485 16.7389 19.3998 16.6404L24.0278 24.1826C22.1798 24.7854 20.1295 25.1107 17.9999 25.1107C15.9827 25.1107 14.037 24.8185 12.2668 24.2754C12.289 24.4412 12.3016 24.6098 12.3016 24.7816C12.3016 26.189 11.5282 27.4185 10.3846 28.0697C12.7346 28.8761 15.3262 29.3129 17.9999 29.3129C20.9238 29.3129 23.7503 28.792 26.2689 27.8349L30.4451 34.6409C30.5617 34.8308 30.7491 34.9668 30.9657 35.0186C31.0304 35.0342 31.0961 35.0417 31.1614 35.0417C31.3153 35.0417 31.4677 34.9994 31.6009 34.9176L31.8397 34.771L34.5919 38.0043C34.6743 38.1011 34.7925 38.1522 34.9122 38.1522C34.9879 38.1522 35.0644 38.1319 35.1328 38.0897L35.8001 37.6779C35.9771 37.5686 36.0476 37.3472 35.9667 37.1561ZM18.0001 14.2708C15.7756 14.2708 13.9659 12.4611 13.9659 10.2366C13.9659 8.45243 15.1307 6.936 16.7394 6.40525V8.80785C16.7394 9.50408 17.3038 10.0685 18.0001 10.0685C18.6963 10.0685 19.2607 9.50408 19.2607 8.80785V6.40525C20.8695 6.93591 22.0342 8.45234 22.0342 10.2366C22.0342 12.4611 20.2245 14.2708 18.0001 14.2708Z" fill="#319F1C"/>
<path d="M4.94039 26L1.25668 32.0033C1.01396 32.3988 1.13784 32.9163 1.53345 33.1591L1.68641 33.253L0.0334068 37.156C-0.0475287 37.3469 0.0230693 37.5685 0.199648 37.6775L0.867051 38.0893C0.935464 38.1315 1.01178 38.1518 1.08759 38.1518C1.20727 38.1518 1.32543 38.101 1.4078 38.0039L4.16003 34.7706L4.39888 34.9172C4.53218 34.999 4.68455 35.0413 4.83844 35.0413C4.90383 35.0413 4.96946 35.0336 5.0341 35.0182C5.25085 34.9664 5.43819 34.8305 5.55476 34.6405L9.3394 28.4726C9.07524 28.5311 8.80125 28.5631 8.5197 28.5631C6.86082 28.5632 5.44894 27.4891 4.94039 26Z" fill="#319F1C"/>
<path d="M8.49029 26.7983C9.6043 26.7983 10.5074 25.8952 10.5074 24.7812C10.5074 23.6672 9.6043 22.7642 8.49029 22.7642C7.37629 22.7642 6.47321 23.6672 6.47321 24.7812C6.47321 25.8952 7.37629 26.7983 8.49029 26.7983Z" fill="#319F1C"/>
</svg>
